<svg width="1544" height="500" viewBox="0 0 1544 500" fill="none" xmlns="http://www.w3.org/2000/svg">
<g clip-path="url(#clip0_25_1682)">
<rect width="1544" height="500" fill="#0D1013"/>
<path d="M83.8125 364V320.364H102.733C106.057 320.364 108.848 320.811 111.107 321.706C113.379 322.601 115.091 323.865 116.241 325.499C117.406 327.132 117.989 329.057 117.989 331.273C117.989 332.878 117.634 334.341 116.923 335.662C116.227 336.983 115.247 338.091 113.983 338.986C112.719 339.866 111.241 340.477 109.551 340.818V341.244C111.426 341.315 113.131 341.791 114.665 342.672C116.199 343.538 117.42 344.739 118.33 346.273C119.239 347.793 119.693 349.582 119.693 351.642C119.693 354.028 119.068 356.152 117.818 358.013C116.582 359.874 114.821 361.337 112.534 362.402C110.247 363.467 107.52 364 104.352 364H83.8125ZM95.6591 354.54H101.199C103.188 354.54 104.679 354.17 105.673 353.432C106.668 352.679 107.165 351.571 107.165 350.108C107.165 349.085 106.93 348.219 106.462 347.509C105.993 346.798 105.325 346.259 104.459 345.889C103.607 345.52 102.577 345.335 101.369 345.335H95.6591V354.54ZM95.6591 338.006H100.517C101.554 338.006 102.47 337.842 103.266 337.516C104.061 337.189 104.679 336.72 105.119 336.109C105.574 335.484 105.801 334.724 105.801 333.83C105.801 332.48 105.318 331.45 104.352 330.74C103.386 330.016 102.165 329.653 100.688 329.653H95.6591V338.006ZM135.226 364H122.442L136.845 320.364H153.038L167.442 364H154.658L145.112 332.381H144.771L135.226 364ZM132.839 346.784H156.874V355.648H132.839V346.784ZM209.4 320.364V364H199.514L183.747 341.074H183.491V364H171.645V320.364H181.701L197.213 343.205H197.554V320.364H209.4ZM252.76 320.364V364H242.873L227.106 341.074H226.85V364H215.004V320.364H225.061L240.572 343.205H240.913V320.364H252.76ZM258.363 364V320.364H289.812V329.909H270.21V337.409H288.193V346.955H270.21V354.455H289.727V364H258.363ZM312.477 364H295.688V320.364H312.307C316.795 320.364 320.673 321.237 323.94 322.984C327.222 324.717 329.75 327.217 331.526 330.484C333.315 333.737 334.21 337.636 334.21 342.182C334.21 346.727 333.322 350.634 331.547 353.901C329.771 357.153 327.257 359.653 324.004 361.401C320.751 363.134 316.909 364 312.477 364ZM307.534 353.943H312.051C314.21 353.943 316.05 353.595 317.57 352.899C319.104 352.203 320.268 351.003 321.064 349.298C321.874 347.594 322.278 345.222 322.278 342.182C322.278 339.142 321.866 336.77 321.043 335.065C320.233 333.361 319.04 332.161 317.463 331.464C315.901 330.768 313.983 330.42 311.71 330.42H307.534V353.943ZM363.491 320.364V364H351.645V320.364H363.491ZM369.105 364V320.364H387.941C391.179 320.364 394.013 321.003 396.442 322.281C398.871 323.56 400.76 325.357 402.11 327.672C403.459 329.987 404.134 332.693 404.134 335.79C404.134 338.915 403.438 341.621 402.046 343.908C400.668 346.195 398.729 347.956 396.229 349.192C393.743 350.428 390.838 351.045 387.515 351.045H376.265V341.841H385.128C386.52 341.841 387.706 341.599 388.686 341.116C389.681 340.619 390.441 339.916 390.966 339.007C391.506 338.098 391.776 337.026 391.776 335.79C391.776 334.54 391.506 333.474 390.966 332.594C390.441 331.699 389.681 331.017 388.686 330.548C387.706 330.065 386.52 329.824 385.128 329.824H380.952V364H369.105ZM432.003 334C431.89 332.58 431.357 331.472 430.405 330.676C429.468 329.881 428.04 329.483 426.123 329.483C424.901 329.483 423.9 329.632 423.118 329.93C422.351 330.214 421.783 330.605 421.414 331.102C421.044 331.599 420.853 332.168 420.838 332.807C420.81 333.332 420.902 333.808 421.115 334.234C421.343 334.646 421.698 335.023 422.181 335.364C422.664 335.69 423.282 335.989 424.034 336.259C424.787 336.528 425.682 336.77 426.719 336.983L430.299 337.75C432.713 338.261 434.78 338.936 436.499 339.774C438.218 340.612 439.624 341.599 440.718 342.736C441.811 343.858 442.614 345.122 443.125 346.528C443.651 347.935 443.921 349.469 443.935 351.131C443.921 354 443.203 356.429 441.783 358.418C440.363 360.406 438.331 361.919 435.689 362.956C433.061 363.993 429.901 364.511 426.208 364.511C422.415 364.511 419.105 363.95 416.279 362.828C413.466 361.706 411.279 359.98 409.716 357.651C408.168 355.307 407.387 352.31 407.373 348.659H418.623C418.694 349.994 419.027 351.116 419.624 352.026C420.221 352.935 421.059 353.624 422.138 354.092C423.232 354.561 424.532 354.795 426.037 354.795C427.301 354.795 428.36 354.639 429.212 354.327C430.064 354.014 430.711 353.581 431.151 353.027C431.591 352.473 431.819 351.841 431.833 351.131C431.819 350.463 431.598 349.881 431.172 349.384C430.76 348.872 430.078 348.418 429.127 348.02C428.175 347.608 426.89 347.224 425.27 346.869L420.924 345.932C417.06 345.094 414.013 343.695 411.783 341.734C409.567 339.76 408.466 337.068 408.48 333.659C408.466 330.889 409.205 328.467 410.696 326.393C412.202 324.305 414.283 322.679 416.939 321.514C419.61 320.349 422.671 319.767 426.123 319.767C429.645 319.767 432.692 320.357 435.263 321.536C437.834 322.714 439.816 324.376 441.208 326.521C442.614 328.652 443.324 331.145 443.338 334H432.003Z" fill="white"/>
<path d="M83.7965 413V387.545H99.5813V390.852H87.6371V398.607H98.4503V401.901H87.6371V413H83.7965ZM110.646 413.385C108.856 413.385 107.295 412.975 105.96 412.155C104.626 411.335 103.591 410.187 102.853 408.712C102.116 407.237 101.747 405.514 101.747 403.542C101.747 401.561 102.116 399.829 102.853 398.346C103.591 396.863 104.626 395.711 105.96 394.891C107.295 394.071 108.856 393.661 110.646 393.661C112.436 393.661 113.998 394.071 115.332 394.891C116.666 395.711 117.702 396.863 118.439 398.346C119.177 399.829 119.545 401.561 119.545 403.542C119.545 405.514 119.177 407.237 118.439 408.712C117.702 410.187 116.666 411.335 115.332 412.155C113.998 412.975 112.436 413.385 110.646 413.385ZM110.659 410.266C111.819 410.266 112.78 409.959 113.542 409.346C114.304 408.733 114.868 407.917 115.233 406.897C115.605 405.878 115.792 404.755 115.792 403.529C115.792 402.311 115.605 401.192 115.233 400.173C114.868 399.146 114.304 398.321 113.542 397.7C112.78 397.078 111.819 396.768 110.659 396.768C109.49 396.768 108.521 397.078 107.75 397.7C106.988 398.321 106.42 399.146 106.047 400.173C105.683 401.192 105.501 402.311 105.501 403.529C105.501 404.755 105.683 405.878 106.047 406.897C106.42 407.917 106.988 408.733 107.75 409.346C108.521 409.959 109.49 410.266 110.659 410.266ZM123.694 413V393.909H127.286V396.942H127.484C127.832 395.914 128.446 395.106 129.324 394.518C130.21 393.922 131.213 393.623 132.332 393.623C132.564 393.623 132.837 393.632 133.152 393.648C133.475 393.665 133.728 393.685 133.91 393.71V397.265C133.761 397.223 133.496 397.178 133.115 397.128C132.734 397.07 132.352 397.041 131.971 397.041C131.093 397.041 130.31 397.228 129.622 397.6C128.943 397.965 128.404 398.475 128.006 399.129C127.609 399.776 127.41 400.513 127.41 401.342V413H123.694ZM146.687 413V387.545H162.646V390.852H150.528V398.607H161.813V401.901H150.528V409.694H162.795V413H146.687ZM173.033 413.423C171.824 413.423 170.73 413.199 169.752 412.751C168.774 412.296 168 411.637 167.428 410.775C166.865 409.913 166.583 408.857 166.583 407.606C166.583 406.529 166.79 405.642 167.204 404.946C167.619 404.25 168.178 403.699 168.882 403.293C169.586 402.887 170.374 402.58 171.244 402.373C172.114 402.166 173 402.009 173.903 401.901C175.047 401.768 175.975 401.661 176.688 401.578C177.4 401.487 177.918 401.342 178.241 401.143C178.564 400.944 178.726 400.621 178.726 400.173V400.086C178.726 399.001 178.419 398.16 177.806 397.563C177.201 396.967 176.298 396.668 175.097 396.668C173.845 396.668 172.859 396.946 172.139 397.501C171.426 398.048 170.933 398.657 170.66 399.328L167.167 398.533C167.581 397.373 168.186 396.436 168.982 395.724C169.785 395.003 170.709 394.481 171.753 394.158C172.797 393.826 173.895 393.661 175.047 393.661C175.809 393.661 176.617 393.752 177.471 393.934C178.332 394.108 179.136 394.431 179.882 394.903C180.636 395.376 181.253 396.051 181.734 396.929C182.214 397.799 182.455 398.93 182.455 400.322V413H178.825V410.39H178.676C178.436 410.871 178.075 411.343 177.595 411.807C177.114 412.271 176.497 412.656 175.743 412.963C174.989 413.269 174.086 413.423 173.033 413.423ZM173.841 410.44C174.869 410.44 175.747 410.237 176.476 409.831C177.214 409.425 177.773 408.894 178.154 408.24C178.544 407.577 178.738 406.868 178.738 406.114V403.653C178.606 403.786 178.349 403.91 177.968 404.026C177.595 404.134 177.168 404.229 176.688 404.312C176.207 404.387 175.739 404.457 175.283 404.523C174.827 404.581 174.446 404.631 174.14 404.673C173.419 404.764 172.76 404.917 172.163 405.132C171.575 405.348 171.103 405.659 170.747 406.065C170.399 406.462 170.225 406.993 170.225 407.656C170.225 408.575 170.564 409.271 171.244 409.744C171.923 410.208 172.789 410.44 173.841 410.44ZM201.71 398.57L198.342 399.167C198.201 398.736 197.977 398.326 197.671 397.936C197.373 397.547 196.967 397.228 196.453 396.979C195.939 396.73 195.297 396.606 194.526 396.606C193.474 396.606 192.596 396.842 191.891 397.315C191.187 397.779 190.835 398.379 190.835 399.117C190.835 399.755 191.071 400.269 191.543 400.658C192.016 401.047 192.778 401.366 193.83 401.615L196.863 402.311C198.62 402.717 199.929 403.343 200.79 404.188C201.652 405.033 202.083 406.131 202.083 407.482C202.083 408.625 201.752 409.644 201.089 410.539C200.434 411.426 199.519 412.122 198.342 412.627C197.174 413.133 195.819 413.385 194.278 413.385C192.14 413.385 190.396 412.93 189.045 412.018C187.694 411.098 186.866 409.793 186.559 408.103L190.151 407.556C190.375 408.492 190.835 409.201 191.531 409.681C192.227 410.154 193.134 410.39 194.253 410.39C195.471 410.39 196.444 410.137 197.174 409.632C197.903 409.118 198.267 408.492 198.267 407.755C198.267 407.158 198.044 406.657 197.596 406.251C197.157 405.845 196.482 405.538 195.57 405.331L192.339 404.623C190.557 404.217 189.24 403.571 188.386 402.684C187.541 401.797 187.119 400.675 187.119 399.316C187.119 398.189 187.433 397.203 188.063 396.358C188.693 395.512 189.563 394.854 190.673 394.381C191.784 393.901 193.056 393.661 194.489 393.661C196.552 393.661 198.176 394.108 199.361 395.003C200.546 395.889 201.329 397.078 201.71 398.57ZM208.518 420.159C207.963 420.159 207.458 420.114 207.002 420.022C206.546 419.94 206.206 419.848 205.983 419.749L206.878 416.704C207.557 416.886 208.162 416.965 208.692 416.94C209.223 416.915 209.691 416.716 210.097 416.343C210.511 415.971 210.876 415.362 211.19 414.516L211.65 413.249L204.665 393.909H208.642L213.477 408.724H213.676L218.511 393.909H222.501L214.633 415.548C214.269 416.542 213.805 417.383 213.241 418.071C212.678 418.767 212.007 419.289 211.228 419.637C210.449 419.985 209.546 420.159 208.518 420.159ZM243.795 413H235.554V387.545H244.056C246.55 387.545 248.692 388.055 250.482 389.074C252.271 390.085 253.643 391.539 254.596 393.437C255.557 395.326 256.037 397.592 256.037 400.235C256.037 402.887 255.553 405.166 254.583 407.071C253.622 408.977 252.23 410.444 250.407 411.471C248.584 412.49 246.38 413 243.795 413ZM239.395 409.644H243.583C245.522 409.644 247.134 409.28 248.418 408.55C249.703 407.813 250.664 406.748 251.302 405.356C251.94 403.956 252.259 402.249 252.259 400.235C252.259 398.239 251.94 396.544 251.302 395.152C250.672 393.76 249.732 392.703 248.48 391.983C247.229 391.262 245.676 390.901 243.82 390.901H239.395V409.644ZM260.515 413V393.909H264.231V413H260.515ZM262.392 390.963C261.745 390.963 261.19 390.748 260.726 390.317C260.27 389.878 260.043 389.356 260.043 388.751C260.043 388.138 260.27 387.616 260.726 387.185C261.19 386.746 261.745 386.526 262.392 386.526C263.038 386.526 263.589 386.746 264.045 387.185C264.509 387.616 264.741 388.138 264.741 388.751C264.741 389.356 264.509 389.878 264.045 390.317C263.589 390.748 263.038 390.963 262.392 390.963ZM277.235 420.557C275.719 420.557 274.414 420.358 273.32 419.96C272.234 419.563 271.348 419.036 270.66 418.382C269.972 417.727 269.459 417.01 269.119 416.232L272.313 414.914C272.537 415.279 272.835 415.664 273.208 416.07C273.589 416.484 274.103 416.836 274.749 417.126C275.404 417.416 276.245 417.561 277.272 417.561C278.681 417.561 279.845 417.218 280.765 416.53C281.684 415.85 282.144 414.765 282.144 413.273V409.52H281.908C281.684 409.926 281.361 410.377 280.939 410.875C280.524 411.372 279.953 411.803 279.224 412.167C278.494 412.532 277.546 412.714 276.377 412.714C274.869 412.714 273.51 412.362 272.301 411.658C271.099 410.945 270.146 409.897 269.442 408.513C268.746 407.121 268.398 405.41 268.398 403.38C268.398 401.35 268.742 399.61 269.43 398.16C270.126 396.71 271.078 395.599 272.288 394.829C273.498 394.05 274.869 393.661 276.402 393.661C277.587 393.661 278.544 393.859 279.273 394.257C280.002 394.647 280.57 395.102 280.976 395.624C281.39 396.146 281.709 396.606 281.933 397.004H282.206V393.909H285.848V413.423C285.848 415.063 285.467 416.41 284.705 417.462C283.942 418.514 282.911 419.293 281.61 419.799C280.317 420.304 278.859 420.557 277.235 420.557ZM277.198 409.632C278.267 409.632 279.17 409.383 279.907 408.886C280.653 408.381 281.216 407.66 281.597 406.723C281.987 405.779 282.182 404.648 282.182 403.33C282.182 402.046 281.991 400.915 281.61 399.937C281.229 398.959 280.669 398.197 279.932 397.65C279.195 397.095 278.283 396.817 277.198 396.817C276.079 396.817 275.147 397.107 274.401 397.688C273.655 398.259 273.092 399.038 272.711 400.024C272.338 401.01 272.151 402.112 272.151 403.33C272.151 404.581 272.342 405.679 272.723 406.624C273.104 407.569 273.668 408.306 274.414 408.836C275.168 409.367 276.096 409.632 277.198 409.632ZM290.832 413V393.909H294.548V413H290.832ZM292.709 390.963C292.063 390.963 291.508 390.748 291.044 390.317C290.588 389.878 290.36 389.356 290.36 388.751C290.36 388.138 290.588 387.616 291.044 387.185C291.508 386.746 292.063 386.526 292.709 386.526C293.355 386.526 293.906 386.746 294.362 387.185C294.826 387.616 295.058 388.138 295.058 388.751C295.058 389.356 294.826 389.878 294.362 390.317C293.906 390.748 293.355 390.963 292.709 390.963ZM308.46 393.909V396.892H298.032V393.909H308.46ZM300.828 389.335H304.544V407.395C304.544 408.115 304.652 408.658 304.868 409.023C305.083 409.379 305.361 409.623 305.7 409.756C306.048 409.88 306.425 409.942 306.831 409.942C307.13 409.942 307.391 409.922 307.614 409.88C307.838 409.839 308.012 409.806 308.136 409.781L308.808 412.851C308.592 412.934 308.286 413.017 307.888 413.099C307.49 413.191 306.993 413.24 306.396 413.249C305.419 413.265 304.507 413.091 303.662 412.727C302.817 412.362 302.133 411.799 301.611 411.036C301.089 410.274 300.828 409.317 300.828 408.165V389.335ZM318.126 413.423C316.916 413.423 315.823 413.199 314.845 412.751C313.867 412.296 313.093 411.637 312.521 410.775C311.957 409.913 311.676 408.857 311.676 407.606C311.676 406.529 311.883 405.642 312.297 404.946C312.711 404.25 313.271 403.699 313.975 403.293C314.679 402.887 315.466 402.58 316.336 402.373C317.206 402.166 318.093 402.009 318.996 401.901C320.14 401.768 321.068 401.661 321.78 401.578C322.493 401.487 323.011 401.342 323.334 401.143C323.657 400.944 323.819 400.621 323.819 400.173V400.086C323.819 399.001 323.512 398.16 322.899 397.563C322.294 396.967 321.391 396.668 320.189 396.668C318.938 396.668 317.952 396.946 317.231 397.501C316.519 398.048 316.026 398.657 315.752 399.328L312.26 398.533C312.674 397.373 313.279 396.436 314.074 395.724C314.878 395.003 315.802 394.481 316.846 394.158C317.89 393.826 318.988 393.661 320.14 393.661C320.902 393.661 321.71 393.752 322.563 393.934C323.425 394.108 324.229 394.431 324.975 394.903C325.729 395.376 326.346 396.051 326.827 396.929C327.307 397.799 327.547 398.93 327.547 400.322V413H323.918V410.39H323.769C323.529 410.871 323.168 411.343 322.688 411.807C322.207 412.271 321.59 412.656 320.836 412.963C320.082 413.269 319.179 413.423 318.126 413.423ZM318.934 410.44C319.962 410.44 320.84 410.237 321.569 409.831C322.307 409.425 322.866 408.894 323.247 408.24C323.636 407.577 323.831 406.868 323.831 406.114V403.653C323.699 403.786 323.442 403.91 323.061 404.026C322.688 404.134 322.261 404.229 321.78 404.312C321.3 404.387 320.832 404.457 320.376 404.523C319.92 404.581 319.539 404.631 319.232 404.673C318.512 404.764 317.853 404.917 317.256 405.132C316.668 405.348 316.196 405.659 315.839 406.065C315.491 406.462 315.317 406.993 315.317 407.656C315.317 408.575 315.657 409.271 316.336 409.744C317.016 410.208 317.882 410.44 318.934 410.44ZM336.214 387.545V413H332.497V387.545H336.214ZM359.014 413H350.774V387.545H359.275C361.77 387.545 363.911 388.055 365.701 389.074C367.491 390.085 368.862 391.539 369.815 393.437C370.776 395.326 371.257 397.592 371.257 400.235C371.257 402.887 370.772 405.166 369.803 407.071C368.842 408.977 367.45 410.444 365.627 411.471C363.804 412.49 361.6 413 359.014 413ZM354.615 409.644H358.803C360.742 409.644 362.354 409.28 363.638 408.55C364.922 407.813 365.884 406.748 366.522 405.356C367.16 403.956 367.479 402.249 367.479 400.235C367.479 398.239 367.16 396.544 366.522 395.152C365.892 393.76 364.951 392.703 363.7 391.983C362.449 391.262 360.895 390.901 359.039 390.901H354.615V409.644ZM383.776 413.385C381.986 413.385 380.424 412.975 379.09 412.155C377.756 411.335 376.721 410.187 375.983 408.712C375.246 407.237 374.877 405.514 374.877 403.542C374.877 401.561 375.246 399.829 375.983 398.346C376.721 396.863 377.756 395.711 379.09 394.891C380.424 394.071 381.986 393.661 383.776 393.661C385.566 393.661 387.128 394.071 388.462 394.891C389.796 395.711 390.832 396.863 391.569 398.346C392.307 399.829 392.675 401.561 392.675 403.542C392.675 405.514 392.307 407.237 391.569 408.712C390.832 410.187 389.796 411.335 388.462 412.155C387.128 412.975 385.566 413.385 383.776 413.385ZM383.789 410.266C384.949 410.266 385.91 409.959 386.672 409.346C387.434 408.733 387.998 407.917 388.362 406.897C388.735 405.878 388.922 404.755 388.922 403.529C388.922 402.311 388.735 401.192 388.362 400.173C387.998 399.146 387.434 398.321 386.672 397.7C385.91 397.078 384.949 396.768 383.789 396.768C382.62 396.768 381.651 397.078 380.88 397.7C380.118 398.321 379.55 399.146 379.177 400.173C378.813 401.192 378.631 402.311 378.631 403.529C378.631 404.755 378.813 405.878 379.177 406.897C379.55 407.917 380.118 408.733 380.88 409.346C381.651 409.959 382.62 410.266 383.789 410.266ZM400.381 413L394.763 393.909H398.604L402.345 407.929H402.531L406.285 393.909H410.126L413.854 407.867H414.041L417.757 393.909H421.597L415.992 413H412.201L408.323 399.216H408.037L404.16 413H400.381ZM428.84 401.665V413H425.124V393.909H428.691V397.016H428.927C429.367 396.005 430.054 395.193 430.991 394.58C431.935 393.967 433.124 393.661 434.558 393.661C435.859 393.661 436.998 393.934 437.976 394.481C438.954 395.019 439.712 395.823 440.25 396.892C440.789 397.961 441.058 399.283 441.058 400.857V413H437.342V401.304C437.342 399.921 436.981 398.839 436.261 398.06C435.54 397.273 434.55 396.88 433.29 396.88C432.428 396.88 431.662 397.066 430.991 397.439C430.328 397.812 429.802 398.359 429.412 399.08C429.031 399.792 428.84 400.654 428.84 401.665ZM449.758 387.545V413H446.042V387.545H449.758ZM462.8 413.385C461.01 413.385 459.448 412.975 458.114 412.155C456.78 411.335 455.744 410.187 455.007 408.712C454.269 407.237 453.9 405.514 453.9 403.542C453.9 401.561 454.269 399.829 455.007 398.346C455.744 396.863 456.78 395.711 458.114 394.891C459.448 394.071 461.01 393.661 462.8 393.661C464.589 393.661 466.151 394.071 467.485 394.891C468.819 395.711 469.855 396.863 470.593 398.346C471.33 399.829 471.699 401.561 471.699 403.542C471.699 405.514 471.33 407.237 470.593 408.712C469.855 410.187 468.819 411.335 467.485 412.155C466.151 412.975 464.589 413.385 462.8 413.385ZM462.812 410.266C463.972 410.266 464.933 409.959 465.695 409.346C466.458 408.733 467.021 407.917 467.386 406.897C467.759 405.878 467.945 404.755 467.945 403.529C467.945 402.311 467.759 401.192 467.386 400.173C467.021 399.146 466.458 398.321 465.695 397.7C464.933 397.078 463.972 396.768 462.812 396.768C461.644 396.768 460.674 397.078 459.904 397.7C459.141 398.321 458.574 399.146 458.201 400.173C457.836 401.192 457.654 402.311 457.654 403.529C457.654 404.755 457.836 405.878 458.201 406.897C458.574 407.917 459.141 408.733 459.904 409.346C460.674 409.959 461.644 410.266 462.812 410.266ZM481.403 413.423C480.193 413.423 479.099 413.199 478.121 412.751C477.144 412.296 476.369 411.637 475.797 410.775C475.234 409.913 474.952 408.857 474.952 407.606C474.952 406.529 475.159 405.642 475.573 404.946C475.988 404.25 476.547 403.699 477.251 403.293C477.956 402.887 478.743 402.58 479.613 402.373C480.483 402.166 481.369 402.009 482.273 401.901C483.416 401.768 484.344 401.661 485.057 401.578C485.769 401.487 486.287 401.342 486.61 401.143C486.934 400.944 487.095 400.621 487.095 400.173V400.086C487.095 399.001 486.789 398.16 486.175 397.563C485.57 396.967 484.667 396.668 483.466 396.668C482.215 396.668 481.229 396.946 480.508 397.501C479.795 398.048 479.302 398.657 479.029 399.328L475.536 398.533C475.95 397.373 476.555 396.436 477.351 395.724C478.155 395.003 479.078 394.481 480.122 394.158C481.166 393.826 482.264 393.661 483.416 393.661C484.178 393.661 484.986 393.752 485.84 393.934C486.701 394.108 487.505 394.431 488.251 394.903C489.005 395.376 489.622 396.051 490.103 396.929C490.583 397.799 490.824 398.93 490.824 400.322V413H487.195V410.39H487.045C486.805 410.871 486.445 411.343 485.964 411.807C485.483 412.271 484.866 412.656 484.112 412.963C483.358 413.269 482.455 413.423 481.403 413.423ZM482.21 410.44C483.238 410.44 484.116 410.237 484.845 409.831C485.583 409.425 486.142 408.894 486.523 408.24C486.913 407.577 487.108 406.868 487.108 406.114V403.653C486.975 403.786 486.718 403.91 486.337 404.026C485.964 404.134 485.537 404.229 485.057 404.312C484.576 404.387 484.108 404.457 483.652 404.523C483.197 404.581 482.815 404.631 482.509 404.673C481.788 404.764 481.129 404.917 480.533 405.132C479.944 405.348 479.472 405.659 479.116 406.065C478.768 406.462 478.594 406.993 478.594 407.656C478.594 408.575 478.933 409.271 479.613 409.744C480.292 410.208 481.158 410.44 482.21 410.44ZM502.92 413.373C501.379 413.373 500.004 412.979 498.794 412.192C497.592 411.397 496.648 410.266 495.96 408.799C495.281 407.324 494.941 405.555 494.941 403.492C494.941 401.429 495.285 399.664 495.972 398.197C496.669 396.73 497.621 395.608 498.831 394.829C500.041 394.05 501.412 393.661 502.945 393.661C504.13 393.661 505.083 393.859 505.804 394.257C506.533 394.647 507.096 395.102 507.494 395.624C507.9 396.146 508.215 396.606 508.439 397.004H508.662V387.545H512.379V413H508.749V410.029H508.439C508.215 410.435 507.892 410.9 507.469 411.422C507.055 411.944 506.483 412.399 505.754 412.789C505.025 413.178 504.08 413.373 502.92 413.373ZM503.741 410.203C504.809 410.203 505.713 409.922 506.45 409.358C507.196 408.787 507.759 407.995 508.14 406.984C508.53 405.973 508.725 404.797 508.725 403.455C508.725 402.129 508.534 400.969 508.153 399.974C507.772 398.98 507.212 398.205 506.475 397.65C505.738 397.095 504.826 396.817 503.741 396.817C502.622 396.817 501.69 397.107 500.944 397.688C500.198 398.268 499.635 399.059 499.254 400.061C498.881 401.064 498.694 402.195 498.694 403.455C498.694 404.731 498.885 405.878 499.266 406.897C499.647 407.917 500.211 408.724 500.956 409.321C501.711 409.909 502.639 410.203 503.741 410.203ZM531.989 398.57L528.62 399.167C528.479 398.736 528.256 398.326 527.949 397.936C527.651 397.547 527.245 397.228 526.731 396.979C526.217 396.73 525.575 396.606 524.805 396.606C523.752 396.606 522.874 396.842 522.17 397.315C521.465 397.779 521.113 398.379 521.113 399.117C521.113 399.755 521.349 400.269 521.822 400.658C522.294 401.047 523.056 401.366 524.109 401.615L527.141 402.311C528.898 402.717 530.207 403.343 531.069 404.188C531.931 405.033 532.361 406.131 532.361 407.482C532.361 408.625 532.03 409.644 531.367 410.539C530.713 411.426 529.797 412.122 528.62 412.627C527.452 413.133 526.097 413.385 524.556 413.385C522.418 413.385 520.674 412.93 519.323 412.018C517.973 411.098 517.144 409.793 516.838 408.103L520.43 407.556C520.653 408.492 521.113 409.201 521.809 409.681C522.505 410.154 523.413 410.39 524.531 410.39C525.749 410.39 526.723 410.137 527.452 409.632C528.181 409.118 528.546 408.492 528.546 407.755C528.546 407.158 528.322 406.657 527.875 406.251C527.435 405.845 526.76 405.538 525.849 405.331L522.617 404.623C520.836 404.217 519.518 403.571 518.665 402.684C517.82 401.797 517.397 400.675 517.397 399.316C517.397 398.189 517.712 397.203 518.342 396.358C518.971 395.512 519.841 394.854 520.952 394.381C522.062 393.901 523.334 393.661 524.767 393.661C526.831 393.661 528.455 394.108 529.639 395.003C530.824 395.889 531.607 397.078 531.989 398.57Z" fill="#00FFC2"/>
<path fill-rule="evenodd" clip-rule="evenodd" d="M99.228 192.015C96.947 192.015 95.3571 192.013 94.1127 191.928C92.8898 191.844 92.1777 191.687 91.634 191.461C89.8608 190.722 88.452 189.305 87.7175 187.521C87.4923 186.974 87.3363 186.258 87.2528 185.028C87.1679 183.776 87.1666 182.177 87.1666 179.882C87.1666 177.588 87.1679 175.989 87.2528 174.737C87.3363 173.507 87.4923 172.791 87.7175 172.244C88.452 170.46 89.8608 169.043 91.634 168.304C92.1777 168.078 92.8898 167.921 94.1127 167.837C95.3571 167.751 96.947 167.75 99.228 167.75H166.772C169.053 167.75 170.643 167.751 171.887 167.837C173.11 167.921 173.822 168.078 174.366 168.304C176.139 169.043 177.548 170.46 178.282 172.244C178.507 172.791 178.664 173.507 178.747 174.737C178.832 175.989 178.833 177.588 178.833 179.882C178.833 182.177 178.832 183.776 178.747 185.028C178.664 186.258 178.507 186.974 178.282 187.521C177.548 189.305 176.139 190.722 174.366 191.461C173.822 191.687 173.11 191.844 171.887 191.928C170.643 192.013 169.053 192.015 166.772 192.015H99.228ZM99.228 184.735C101.893 184.735 104.053 182.563 104.053 179.882C104.053 177.202 101.893 175.029 99.228 175.029C96.5635 175.029 94.4035 177.202 94.4035 179.882C94.4035 182.563 96.5635 184.735 99.228 184.735Z" fill="#00FFC2"/>
<path fill-rule="evenodd" clip-rule="evenodd" d="M99.228 196.868C96.947 196.868 95.3571 196.869 94.1127 196.954C92.8898 197.038 92.1777 197.195 91.634 197.422C89.8608 198.161 88.452 199.578 87.7175 201.361C87.4923 201.908 87.3363 202.625 87.2528 203.855C87.1679 205.106 87.1666 206.706 87.1666 209C87.1666 211.294 87.1679 212.894 87.2528 214.145C87.3363 215.375 87.4923 216.092 87.7175 216.639C88.452 218.422 89.8608 219.84 91.634 220.578C92.1777 220.805 92.8898 220.962 94.1127 221.045C95.3571 221.131 96.947 221.133 99.228 221.133H130.984C136.075 210.076 147.254 202.4 160.225 202.4C167.159 202.4 173.58 204.593 178.833 208.324C178.832 206.385 178.823 204.98 178.747 203.855C178.664 202.625 178.507 201.908 178.282 201.361C177.548 199.578 176.139 198.161 174.366 197.422C173.822 197.195 173.11 197.038 171.887 196.954C170.643 196.869 169.053 196.868 166.772 196.868H99.228ZM104.053 209C104.053 211.68 101.893 213.853 99.228 213.853C96.5635 213.853 94.4035 211.68 94.4035 209C94.4035 206.32 96.5635 204.147 99.228 204.147C101.893 204.147 104.053 206.32 104.053 209Z" fill="#00FFC2"/>
<path fill-rule="evenodd" clip-rule="evenodd" d="M129.209 225.985C128.454 228.72 128.05 231.6 128.05 234.575C128.05 240.266 129.527 245.612 132.12 250.25H99.228C96.947 250.25 95.3571 250.249 94.1127 250.163C92.8898 250.079 92.1777 249.922 91.634 249.696C89.8608 248.957 88.452 247.54 87.7175 245.756C87.4923 245.209 87.3363 244.493 87.2528 243.263C87.1679 242.011 87.1666 240.412 87.1666 238.117C87.1666 235.823 87.1679 234.224 87.2528 232.972C87.3363 231.742 87.4923 231.026 87.7175 230.479C88.452 228.695 89.8608 227.278 91.634 226.539C92.1777 226.313 92.8898 226.156 94.1127 226.072C95.3571 225.987 96.947 225.985 99.228 225.985H129.209ZM99.228 242.971C101.893 242.971 104.053 240.798 104.053 238.117C104.053 235.437 101.893 233.265 99.228 233.265C96.5635 233.265 94.4035 235.437 94.4035 238.117C94.4035 240.798 96.5635 242.971 99.228 242.971Z" fill="#00FFC2"/>
<path fill-rule="evenodd" clip-rule="evenodd" d="M147.508 217.258C151.699 214.091 156.907 212.573 162.144 212.992C167.38 213.411 172.28 215.738 175.915 219.531C179.549 223.324 181.665 228.319 181.861 233.568C182.056 238.818 180.318 243.956 176.976 248.009L147.508 217.258ZM143.195 221.607C140.18 225.674 138.702 230.677 139.022 235.729C139.341 240.781 141.438 245.557 144.94 249.211C148.443 252.866 153.126 255.164 158.159 255.698C163.193 256.232 168.254 254.968 172.445 252.129L143.195 221.614V221.607ZM160.431 206.8C153.12 206.8 146.107 209.705 140.937 214.875C135.767 220.045 132.862 227.057 132.862 234.369C132.862 241.68 135.767 248.693 140.937 253.863C146.107 259.033 153.12 261.938 160.431 261.938C167.743 261.938 174.755 259.033 179.925 253.863C185.095 248.693 188 241.68 188 234.369C188 227.057 185.095 220.045 179.925 214.875C174.755 209.705 167.743 206.8 160.431 206.8Z" fill="#00FFC2"/>
<rect x="649" y="79" width="824" height="500" rx="10" fill="#171D22"/>
<rect x="981.5" y="339.5" width="439" height="94" rx="4.5" fill="#2E4558"/>
<rect x="981.5" y="339.5" width="439" height="94" rx="4.5" stroke="#2E4558"/>
<path d="M991.182 355.32V354.13H994.01V364H992.666V355.32H991.182ZM995.608 363.02C997.194 361.956 998.464 360.901 999.416 359.856C1000.37 358.801 1000.84 357.821 1000.84 356.916C1000.84 356.356 1000.7 355.908 1000.41 355.572C1000.13 355.227 999.672 355.054 999.038 355.054C998.384 355.054 997.89 355.264 997.554 355.684C997.218 356.095 997.031 356.664 996.994 357.392H995.734C995.799 356.291 996.14 355.446 996.756 354.858C997.372 354.261 998.165 353.962 999.136 353.962C1000.06 353.962 1000.79 354.209 1001.33 354.704C1001.87 355.199 1002.15 355.899 1002.15 356.804C1002.15 357.551 1001.9 358.311 1001.42 359.086C1000.94 359.851 1000.34 360.565 999.612 361.228C998.893 361.881 998.151 362.437 997.386 362.894H1002.4V363.944H995.608V363.02ZM1009.63 355.054L1005.89 364H1004.54L1008.34 355.18H1003.16V354.074H1009.63V355.054ZM1012 362.502V364H1010.46V362.502H1012ZM1014.02 362.712C1013.5 361.825 1013.24 360.589 1013.24 359.002C1013.24 357.425 1013.5 356.197 1014.02 355.32C1014.54 354.433 1015.45 353.99 1016.74 353.99C1018.02 353.99 1018.93 354.433 1019.45 355.32C1019.98 356.207 1020.25 357.434 1020.25 359.002C1020.25 360.589 1019.98 361.825 1019.45 362.712C1018.93 363.599 1018.02 364.042 1016.74 364.042C1015.45 364.042 1014.54 363.599 1014.02 362.712ZM1018.81 361.046C1018.93 360.495 1018.99 359.814 1018.99 359.002C1018.99 358.199 1018.93 357.527 1018.81 356.986C1018.7 356.445 1018.48 356.015 1018.15 355.698C1017.82 355.371 1017.35 355.208 1016.74 355.208C1016.13 355.208 1015.66 355.371 1015.34 355.698C1015.01 356.015 1014.78 356.445 1014.66 356.986C1014.55 357.527 1014.5 358.199 1014.5 359.002C1014.5 359.814 1014.55 360.495 1014.66 361.046C1014.78 361.587 1015.01 362.021 1015.34 362.348C1015.66 362.675 1016.13 362.838 1016.74 362.838C1017.35 362.838 1017.82 362.675 1018.15 362.348C1018.48 362.021 1018.7 361.587 1018.81 361.046ZM1023 362.502V364H1021.46V362.502H1023ZM1025.01 362.712C1024.49 361.825 1024.23 360.589 1024.23 359.002C1024.23 357.425 1024.49 356.197 1025.01 355.32C1025.53 354.433 1026.44 353.99 1027.73 353.99C1029.02 353.99 1029.92 354.433 1030.44 355.32C1030.98 356.207 1031.24 357.434 1031.24 359.002C1031.24 360.589 1030.98 361.825 1030.44 362.712C1029.92 363.599 1029.02 364.042 1027.73 364.042C1026.44 364.042 1025.53 363.599 1025.01 362.712ZM1029.8 361.046C1029.92 360.495 1029.98 359.814 1029.98 359.002C1029.98 358.199 1029.92 357.527 1029.8 356.986C1029.69 356.445 1029.47 356.015 1029.14 355.698C1028.82 355.371 1028.34 355.208 1027.73 355.208C1027.12 355.208 1026.65 355.371 1026.33 355.698C1026 356.015 1025.78 356.445 1025.66 356.986C1025.54 357.527 1025.49 358.199 1025.49 359.002C1025.49 359.814 1025.54 360.495 1025.66 361.046C1025.78 361.587 1026 362.021 1026.33 362.348C1026.65 362.675 1027.12 362.838 1027.73 362.838C1028.34 362.838 1028.82 362.675 1029.14 362.348C1029.47 362.021 1029.69 361.587 1029.8 361.046ZM1033.99 362.502V364H1032.45V362.502H1033.99ZM1034.6 355.32V354.13H1037.43V364H1036.09V355.32H1034.6ZM991.182 376.32V375.13H994.01V385H992.666V376.32H991.182ZM997.26 382.228C997.344 382.816 997.549 383.269 997.876 383.586C998.202 383.903 998.65 384.062 999.22 384.062C1000 384.062 1000.6 383.759 1001 383.152C1001.4 382.545 1001.6 381.584 1001.6 380.268C1001.6 380.016 1001.59 379.825 1001.59 379.694C1001.45 380.254 1001.14 380.702 1000.63 381.038C1000.13 381.374 999.537 381.542 998.856 381.542C997.876 381.542 997.106 381.248 996.546 380.66C995.986 380.072 995.706 379.251 995.706 378.196C995.706 377.58 995.827 377.02 996.07 376.516C996.312 376.012 996.681 375.615 997.176 375.326C997.68 375.027 998.3 374.878 999.038 374.878C1000.46 374.878 1001.43 375.317 1001.95 376.194C1002.48 377.062 1002.75 378.257 1002.75 379.778C1002.75 381.514 1002.48 382.839 1001.94 383.754C1001.39 384.659 1000.49 385.112 999.22 385.112C998.277 385.112 997.535 384.846 996.994 384.314C996.462 383.773 996.149 383.077 996.056 382.228H997.26ZM1001.46 378.392C1001.46 377.72 1001.26 377.151 1000.86 376.684C1000.47 376.217 999.873 375.984 999.08 375.984C998.426 375.984 997.904 376.18 997.512 376.572C997.12 376.964 996.924 377.51 996.924 378.21C996.924 378.957 997.12 379.531 997.512 379.932C997.904 380.333 998.44 380.534 999.122 380.534C999.514 380.534 999.887 380.455 1000.24 380.296C1000.61 380.137 1000.9 379.895 1001.12 379.568C1001.35 379.241 1001.46 378.849 1001.46 378.392ZM1004.13 384.02C1005.71 382.956 1006.98 381.901 1007.93 380.856C1008.89 379.801 1009.36 378.821 1009.36 377.916C1009.36 377.356 1009.22 376.908 1008.93 376.572C1008.65 376.227 1008.19 376.054 1007.56 376.054C1006.9 376.054 1006.41 376.264 1006.07 376.684C1005.74 377.095 1005.55 377.664 1005.51 378.392H1004.25C1004.32 377.291 1004.66 376.446 1005.27 375.858C1005.89 375.261 1006.68 374.962 1007.65 374.962C1008.58 374.962 1009.31 375.209 1009.85 375.704C1010.39 376.199 1010.66 376.899 1010.66 377.804C1010.66 378.551 1010.42 379.311 1009.94 380.086C1009.46 380.851 1008.86 381.565 1008.13 382.228C1007.41 382.881 1006.67 383.437 1005.9 383.894H1010.92V384.944H1004.13V384.02ZM1013.44 383.502V385H1011.9V383.502H1013.44ZM1014.06 376.32V375.13H1016.88V385H1015.54V376.32H1014.06ZM1024.26 377.762C1024.19 377.174 1023.99 376.721 1023.66 376.404C1023.34 376.077 1022.9 375.914 1022.33 375.914C1021.54 375.914 1020.94 376.222 1020.52 376.838C1020.12 377.454 1019.92 378.429 1019.92 379.764L1019.94 380.282C1020.08 379.722 1020.4 379.279 1020.9 378.952C1021.41 378.616 1022 378.448 1022.68 378.448C1023.66 378.448 1024.43 378.742 1024.98 379.33C1025.54 379.918 1025.82 380.739 1025.82 381.794C1025.82 382.41 1025.7 382.97 1025.45 383.474C1025.21 383.969 1024.84 384.365 1024.33 384.664C1023.84 384.953 1023.22 385.098 1022.48 385.098C1021.08 385.098 1020.1 384.655 1019.57 383.768C1019.05 382.881 1018.79 381.677 1018.79 380.156C1018.79 378.401 1019.07 377.085 1019.63 376.208C1020.2 375.321 1021.12 374.878 1022.4 374.878C1023.34 374.878 1024.07 375.144 1024.57 375.676C1025.08 376.208 1025.39 376.903 1025.48 377.762H1024.26ZM1020.08 381.584C1020.08 382.265 1020.27 382.839 1020.66 383.306C1021.07 383.763 1021.66 383.992 1022.46 383.992C1023.11 383.992 1023.63 383.801 1024.02 383.418C1024.42 383.026 1024.61 382.48 1024.61 381.78C1024.61 381.024 1024.42 380.45 1024.02 380.058C1023.63 379.657 1023.09 379.456 1022.4 379.456C1022.01 379.456 1021.64 379.535 1021.28 379.694C1020.93 379.853 1020.64 380.095 1020.41 380.422C1020.19 380.739 1020.08 381.127 1020.08 381.584ZM1027.58 377.454C1027.58 376.969 1027.71 376.525 1027.97 376.124C1028.24 375.723 1028.62 375.405 1029.14 375.172C1029.65 374.939 1030.26 374.822 1030.97 374.822C1031.68 374.822 1032.29 374.939 1032.79 375.172C1033.3 375.405 1033.69 375.723 1033.95 376.124C1034.21 376.525 1034.34 376.969 1034.34 377.454C1034.34 378.005 1034.19 378.481 1033.9 378.882C1033.6 379.283 1033.14 379.568 1032.54 379.736C1033.19 379.913 1033.7 380.221 1034.06 380.66C1034.43 381.099 1034.61 381.64 1034.61 382.284C1034.61 383.217 1034.28 383.95 1033.62 384.482C1032.95 385.014 1032.07 385.28 1030.97 385.28C1029.87 385.28 1028.99 385.014 1028.32 384.482C1027.66 383.95 1027.33 383.217 1027.33 382.284C1027.33 381.64 1027.51 381.099 1027.86 380.66C1028.23 380.221 1028.73 379.913 1029.39 379.736C1028.78 379.568 1028.33 379.283 1028.03 378.882C1027.73 378.481 1027.58 378.005 1027.58 377.454ZM1028.84 377.636C1028.84 378.196 1029.03 378.63 1029.42 378.938C1029.8 379.237 1030.32 379.386 1030.97 379.386C1031.62 379.386 1032.14 379.237 1032.51 378.938C1032.89 378.63 1033.08 378.196 1033.08 377.636C1033.08 377.076 1032.89 376.647 1032.51 376.348C1032.13 376.04 1031.61 375.886 1030.97 375.886C1030.33 375.886 1029.81 376.04 1029.42 376.348C1029.03 376.647 1028.84 377.076 1028.84 377.636ZM1028.58 382.214C1028.58 382.849 1028.79 383.343 1029.22 383.698C1029.65 384.043 1030.23 384.216 1030.97 384.216C1031.7 384.216 1032.28 384.039 1032.71 383.684C1033.14 383.329 1033.35 382.839 1033.35 382.214C1033.35 381.579 1033.13 381.099 1032.68 380.772C1032.23 380.445 1031.66 380.282 1030.97 380.282C1030.27 380.282 1029.7 380.445 1029.25 380.772C1028.8 381.099 1028.58 381.579 1028.58 382.214ZM1037.3 383.502V385H1035.76V383.502H1037.3ZM1037.91 376.32V375.13H1040.74V385H1039.4V376.32H1037.91ZM1043.33 383.712C1042.81 382.825 1042.55 381.589 1042.55 380.002C1042.55 378.425 1042.81 377.197 1043.33 376.32C1043.85 375.433 1044.76 374.99 1046.05 374.99C1047.34 374.99 1048.24 375.433 1048.76 376.32C1049.3 377.207 1049.56 378.434 1049.56 380.002C1049.56 381.589 1049.3 382.825 1048.76 383.712C1048.24 384.599 1047.34 385.042 1046.05 385.042C1044.76 385.042 1043.85 384.599 1043.33 383.712ZM1048.12 382.046C1048.24 381.495 1048.3 380.814 1048.3 380.002C1048.3 379.199 1048.24 378.527 1048.12 377.986C1048.01 377.445 1047.79 377.015 1047.46 376.698C1047.14 376.371 1046.66 376.208 1046.05 376.208C1045.44 376.208 1044.97 376.371 1044.65 376.698C1044.32 377.015 1044.1 377.445 1043.98 377.986C1043.86 378.527 1043.81 379.199 1043.81 380.002C1043.81 380.814 1043.86 381.495 1043.98 382.046C1044.1 382.587 1044.32 383.021 1044.65 383.348C1044.97 383.675 1045.44 383.838 1046.05 383.838C1046.66 383.838 1047.14 383.675 1047.46 383.348C1047.79 383.021 1048.01 382.587 1048.12 382.046ZM1051.34 377.454C1051.34 376.969 1051.47 376.525 1051.74 376.124C1052 375.723 1052.38 375.405 1052.9 375.172C1053.41 374.939 1054.02 374.822 1054.73 374.822C1055.44 374.822 1056.05 374.939 1056.55 375.172C1057.06 375.405 1057.45 375.723 1057.71 376.124C1057.97 376.525 1058.11 376.969 1058.11 377.454C1058.11 378.005 1057.96 378.481 1057.66 378.882C1057.36 379.283 1056.91 379.568 1056.3 379.736C1056.95 379.913 1057.46 380.221 1057.83 380.66C1058.19 381.099 1058.37 381.64 1058.37 382.284C1058.37 383.217 1058.04 383.95 1057.38 384.482C1056.71 385.014 1055.83 385.28 1054.73 385.28C1053.63 385.28 1052.75 385.014 1052.09 384.482C1051.42 383.95 1051.09 383.217 1051.09 382.284C1051.09 381.64 1051.27 381.099 1051.62 380.66C1051.99 380.221 1052.5 379.913 1053.15 379.736C1052.54 379.568 1052.09 379.283 1051.79 378.882C1051.49 378.481 1051.34 378.005 1051.34 377.454ZM1052.6 377.636C1052.6 378.196 1052.79 378.63 1053.18 378.938C1053.56 379.237 1054.08 379.386 1054.73 379.386C1055.38 379.386 1055.9 379.237 1056.27 378.938C1056.65 378.63 1056.85 378.196 1056.85 377.636C1056.85 377.076 1056.65 376.647 1056.27 376.348C1055.89 376.04 1055.38 375.886 1054.73 375.886C1054.09 375.886 1053.57 376.04 1053.18 376.348C1052.79 376.647 1052.6 377.076 1052.6 377.636ZM1052.34 382.214C1052.34 382.849 1052.55 383.343 1052.98 383.698C1053.41 384.043 1053.99 384.216 1054.73 384.216C1055.46 384.216 1056.04 384.039 1056.47 383.684C1056.9 383.329 1057.11 382.839 1057.11 382.214C1057.11 381.579 1056.89 381.099 1056.44 380.772C1055.99 380.445 1055.42 380.282 1054.73 380.282C1054.03 380.282 1053.46 380.445 1053.01 380.772C1052.56 381.099 1052.34 381.579 1052.34 382.214ZM1061.06 383.502V385H1059.52V383.502H1061.06ZM1061.67 376.32V375.13H1064.5V385H1063.16V376.32H1061.67Z" fill="white"/>
<g filter="url(#filter0_d_25_1682)">
<path d="M649 89C649 83.4772 653.477 79 659 79H1463C1468.52 79 1473 83.4772 1473 89V119H649V89Z" fill="#2E4558"/>
</g>
<circle cx="680" cy="99" r="7" fill="#FF5B53"/>
<circle cx="704" cy="99" r="7" fill="#E6C029"/>
<circle cx="728" cy="99" r="7" fill="#54C92A"/>
<path opacity="0.5" d="M649 119H735V579H659C653.477 579 649 574.523 649 569V119Z" fill="black"/>
<rect x="649" y="346" width="86" height="52" fill="#01FFB9"/>
<path d="M694.125 153.438C694.125 154.613 693.175 155.562 692 155.562C690.825 155.562 689.875 154.613 689.875 153.438C689.875 152.264 690.825 151.312 692 151.312C693.175 151.312 694.125 152.264 694.125 153.438ZM688.281 169.375C688.281 167.356 689.888 165.716 691.894 165.656L696.383 155.45C696.741 154.646 697.678 154.281 698.488 154.633C699.291 154.991 699.657 155.928 699.245 156.738L694.809 166.945C695.38 167.595 695.719 168.386 695.719 169.375C695.719 171.427 694.052 173.094 692 173.094C689.948 173.094 688.281 171.427 688.281 169.375ZM687.75 156.625C687.75 157.8 686.8 158.75 685.625 158.75C684.45 158.75 683.5 157.8 683.5 156.625C683.5 155.45 684.45 154.5 685.625 154.5C686.8 154.5 687.75 155.45 687.75 156.625ZM680.312 163C680.312 161.825 681.264 160.875 682.438 160.875C683.613 160.875 684.562 161.825 684.562 163C684.562 164.175 683.613 165.125 682.438 165.125C681.264 165.125 680.312 164.175 680.312 163ZM703.688 163C703.688 164.175 702.738 165.125 701.562 165.125C700.387 165.125 699.438 164.175 699.438 163C699.438 161.825 700.387 160.875 701.562 160.875C702.738 160.875 703.688 161.825 703.688 163ZM675 163C675 153.61 682.61 146 692 146C701.39 146 709 153.61 709 163C709 172.39 701.39 180 692 180C682.61 180 675 172.39 675 163ZM692 176.812C699.63 176.812 705.812 170.63 705.812 163C705.812 155.37 699.63 149.188 692 149.188C684.37 149.188 678.188 155.37 678.188 163C678.188 170.63 684.37 176.812 692 176.812Z" fill="white"/>
<path d="M693.421 208.812H678.632C678.175 208.812 677.711 209.232 677.711 209.75V232.25C677.711 232.766 678.175 233.188 678.632 233.188H691.377C692.068 234.266 692.955 235.209 693.979 235.959C693.801 235.982 693.611 236 693.421 236H678.684C676.649 236 675 234.318 675 232.25V209.75C675 207.679 676.649 206 678.684 206H693.421C695.453 206 697.105 207.679 697.105 209.75V217.637C696.115 217.924 695.183 218.357 694.342 218.92V209.697C694.342 209.232 693.928 208.76 693.421 208.76V208.812ZM680.475 214.906C680.475 214.127 681.142 213.5 681.856 213.5H690.146C690.963 213.5 691.527 214.127 691.527 214.906C691.527 215.686 690.963 216.312 690.146 216.312H681.856C681.142 216.312 680.475 215.686 680.475 214.906ZM690.146 219.125C690.963 219.125 691.527 219.752 691.527 220.531C691.527 221.311 690.963 221.938 690.146 221.938H681.856C681.142 221.938 680.475 221.311 680.475 220.531C680.475 219.752 681.142 219.125 681.856 219.125H690.146ZM684.619 224.75C685.437 224.75 686.001 225.377 686.001 226.156C686.001 226.936 685.437 227.562 684.619 227.562H681.856C681.142 227.562 680.475 226.936 680.475 226.156C680.475 225.377 681.142 224.75 681.856 224.75H684.619ZM691.527 227.562C691.527 222.904 695.292 219.125 699.868 219.125C704.445 219.125 708.158 222.904 708.158 227.562C708.158 232.221 704.445 236 699.868 236C695.292 236 691.527 232.221 691.527 227.562ZM699.868 224.75C700.634 224.75 701.25 224.123 701.25 223.344C701.25 222.564 700.634 221.938 699.868 221.938C699.103 221.938 698.487 222.564 698.487 223.344C698.487 224.123 699.103 224.75 699.868 224.75ZM698.947 228.5V231.312C698.441 231.312 698.026 231.734 698.026 232.25C698.026 232.766 698.441 233.188 698.947 233.188H700.789C701.296 233.188 701.711 232.766 701.711 232.25C701.711 231.734 701.296 231.312 700.789 231.312V227.562C700.789 227.047 700.375 226.625 699.868 226.625H698.947C698.441 226.625 698.026 227.047 698.026 227.562C698.026 228.078 698.441 228.5 698.947 228.5Z" fill="#8A9BA8"/>
<path d="M704.704 256C704.513 256 704.323 256.029 704.14 256.087L686.327 261.713C685.55 261.965 685.016 262.68 685.016 263.5V277.275C684.138 276.843 683.178 276.624 682.204 276.624C679.046 276.625 676.579 278.723 676.579 281.312C676.579 283.902 679.046 286 682.151 286C685.045 286 687.395 284.177 687.711 281.832C687.755 281.671 687.776 281.484 687.776 281.315L687.829 271L703.766 265.968V273.527C702.888 273.094 701.928 272.875 700.953 272.875C697.848 272.875 695.381 274.97 695.381 277.51C695.381 280.05 697.848 282.145 700.953 282.145C703.847 282.145 706.198 280.313 706.52 277.977C706.557 277.816 706.572 277.654 706.579 277.493V257.874C706.579 256.841 705.747 256 704.704 256ZM682.204 283.188C680.549 283.188 679.391 282.198 679.391 281.312C679.391 280.427 680.549 279.438 682.204 279.438C683.859 279.438 685.016 280.427 685.016 281.312C685.016 282.198 683.856 283.188 682.204 283.188ZM703.766 277.562C703.766 278.448 702.609 279.438 700.954 279.438C699.299 279.438 698.141 278.448 698.141 277.562C698.141 276.677 699.299 275.688 700.954 275.688C702.609 275.688 703.766 276.678 703.766 277.562ZM703.766 263.02L687.829 268.047V264.191L703.766 259.159V263.02Z" fill="#8A9BA8"/>
<path d="M699.211 336H683.947C681.84 336 680.132 334.318 680.132 332.25V309.75C680.132 307.679 681.84 306 683.947 306H694.769C695.782 306 696.748 306.395 697.464 307.099L701.911 311.464C702.627 312.17 703.026 313.119 703.026 314.115V332.25C703.026 334.318 701.315 336 699.211 336ZM683.947 333.188H699.211C699.735 333.188 700.164 332.766 700.164 332.25V314.115C700.164 313.869 700.063 313.629 699.884 313.453L695.442 309.087C695.264 308.912 695.019 308.812 694.769 308.812H683.947C683.42 308.812 682.993 309.232 682.993 309.75V332.25C682.993 332.766 683.42 333.188 683.947 333.188Z" fill="#8A9BA8"/>
<path d="M699.079 386H684.079C680.972 386 678.454 383.48 678.454 380.375V376.156C678.454 375.377 679.084 374.75 679.86 374.75C680.637 374.75 681.266 375.377 681.266 376.156V380.375C681.266 381.922 682.532 383.188 684.079 383.188H699.079C700.626 383.188 701.891 381.922 701.891 380.375V376.156C701.891 375.377 702.518 374.75 703.298 374.75C704.077 374.75 704.704 375.377 704.704 376.156V380.375C704.704 383.48 702.184 386 699.079 386ZM690.53 377.557L682.698 368.627C682.374 368.264 682.204 367.795 682.204 367.326C682.204 367.051 682.261 366.77 682.378 366.512C682.689 365.82 683.372 365.375 684.119 365.375H687.36V358.344C687.36 357.051 688.409 356 689.704 356H693.454C694.749 356 695.798 357.051 695.798 358.344V365.375H699.038C699.788 365.375 700.468 365.82 700.778 366.512C701.095 367.221 700.971 368.053 700.462 368.627L692.628 377.557C692.364 377.861 691.983 378.031 691.579 378.031C691.175 378.031 690.794 377.861 690.53 377.557ZM691.579 374.504L697.087 368.188H692.985V358.812H690.173V368.188H686.018L691.579 374.504Z" fill="black"/>
<g filter="url(#filter1_d_25_1682)">
<rect x="1437" y="351" width="72" height="72" rx="10" fill="#01FFB9"/>
</g>
<path d="M1462.88 387C1462.88 381.315 1467.32 376.875 1473 376.875C1478.59 376.875 1483.13 381.315 1483.13 387C1483.13 392.59 1478.59 397.125 1473 397.125C1467.32 397.125 1462.88 392.59 1462.88 387ZM1473 381.938C1470.21 381.938 1467.94 384.205 1467.94 387C1467.94 389.795 1470.21 392.062 1473 392.062C1475.79 392.062 1478.06 389.795 1478.06 387C1478.06 384.205 1475.79 381.938 1473 381.938ZM1476.91 360C1479.25 360 1481.29 361.602 1481.84 363.875L1482.66 367.299C1483.56 367.737 1484.41 368.234 1485.22 368.783L1488.61 367.787C1490.86 367.125 1493.26 368.086 1494.43 370.111L1498.34 376.886C1499.5 378.911 1499.14 381.473 1497.45 383.087L1494.88 385.429C1494.92 386.009 1494.94 386.504 1494.94 387C1494.94 387.496 1494.92 387.991 1494.88 388.477L1497.45 390.913C1499.14 392.527 1499.5 395.089 1498.34 397.114L1494.43 403.886C1493.26 405.911 1490.86 406.87 1488.61 406.216L1485.22 405.214C1484.41 405.763 1483.56 406.259 1482.66 406.702L1481.84 410.129C1481.29 412.397 1479.25 414 1476.91 414H1469.09C1466.75 414 1464.71 412.397 1464.16 410.129L1463.34 406.702C1462.44 406.259 1461.59 405.763 1460.78 405.214L1457.3 406.216C1455.15 406.87 1452.74 405.911 1451.57 403.886L1447.66 397.114C1446.49 395.089 1446.86 392.527 1448.56 390.913L1451.11 388.477C1451.08 387.991 1451.06 387.496 1451.06 386.905C1451.06 386.504 1451.08 386.009 1451.11 385.429L1448.56 383.087C1446.86 381.473 1446.49 378.911 1447.66 376.886L1451.57 370.111C1452.74 368.086 1455.15 367.125 1457.3 367.787L1460.78 368.783C1461.59 368.234 1462.44 367.737 1463.34 367.299L1464.16 363.875C1464.71 361.601 1466.75 360 1469.09 360L1476.91 360ZM1467.67 370.927L1466.49 371.422C1465.15 371.981 1463.91 372.709 1462.78 373.574L1461.76 374.354L1455.96 372.646L1452.04 379.417L1456.42 383.583L1456.26 384.848C1456.17 385.555 1456.13 386.272 1456.13 387C1456.13 387.728 1456.17 388.445 1456.26 389.152L1456.42 390.417L1452.05 394.583L1455.96 401.354L1461.76 399.646L1462.78 400.426C1463.91 401.291 1465.15 402.019 1466.49 402.578L1467.67 403.073L1469.09 408.938H1476.91L1478.33 403.073L1479.51 402.578C1480.85 402.019 1482.09 401.291 1483.22 400.426L1484.24 399.646L1490.04 401.354L1493.96 394.583L1489.58 390.417L1489.74 389.152C1489.83 388.445 1489.88 387.728 1489.88 387C1489.88 386.272 1489.83 385.555 1489.74 384.848L1489.58 383.583L1493.96 379.417L1490.04 372.646L1484.24 374.354L1483.22 373.574C1482.09 372.709 1480.85 371.981 1479.51 371.422L1478.33 370.927L1476.91 365.062H1469.09L1467.67 370.927Z" fill="black"/>
<path d="M799.6 157.04V171H796.8V161.92L793.06 171H790.94L787.18 161.92V171H784.38V157.04H787.56L792 167.42L796.44 157.04H799.6ZM807.288 171.18C806.222 171.18 805.262 170.947 804.408 170.48C803.555 170 802.882 169.327 802.388 168.46C801.908 167.593 801.668 166.593 801.668 165.46C801.668 164.327 801.915 163.327 802.408 162.46C802.915 161.593 803.602 160.927 804.468 160.46C805.335 159.98 806.302 159.74 807.368 159.74C808.435 159.74 809.402 159.98 810.268 160.46C811.135 160.927 811.815 161.593 812.308 162.46C812.815 163.327 813.068 164.327 813.068 165.46C813.068 166.593 812.808 167.593 812.288 168.46C811.782 169.327 811.088 170 810.208 170.48C809.342 170.947 808.368 171.18 807.288 171.18ZM807.288 168.74C807.795 168.74 808.268 168.62 808.708 168.38C809.162 168.127 809.522 167.753 809.788 167.26C810.055 166.767 810.188 166.167 810.188 165.46C810.188 164.407 809.908 163.6 809.348 163.04C808.802 162.467 808.128 162.18 807.328 162.18C806.528 162.18 805.855 162.467 805.308 163.04C804.775 163.6 804.508 164.407 804.508 165.46C804.508 166.513 804.768 167.327 805.288 167.9C805.822 168.46 806.488 168.74 807.288 168.74ZM814.402 165.42C814.402 164.3 814.622 163.307 815.062 162.44C815.516 161.573 816.129 160.907 816.902 160.44C817.676 159.973 818.536 159.74 819.482 159.74C820.202 159.74 820.889 159.9 821.542 160.22C822.196 160.527 822.716 160.94 823.102 161.46V156.2H825.942V171H823.102V169.36C822.756 169.907 822.269 170.347 821.642 170.68C821.016 171.013 820.289 171.18 819.462 171.18C818.529 171.18 817.676 170.94 816.902 170.46C816.129 169.98 815.516 169.307 815.062 168.44C814.622 167.56 814.402 166.553 814.402 165.42ZM823.122 165.46C823.122 164.78 822.989 164.2 822.722 163.72C822.456 163.227 822.096 162.853 821.642 162.6C821.189 162.333 820.702 162.2 820.182 162.2C819.662 162.2 819.182 162.327 818.742 162.58C818.302 162.833 817.942 163.207 817.662 163.7C817.396 164.18 817.262 164.753 817.262 165.42C817.262 166.087 817.396 166.673 817.662 167.18C817.942 167.673 818.302 168.053 818.742 168.32C819.196 168.587 819.676 168.72 820.182 168.72C820.702 168.72 821.189 168.593 821.642 168.34C822.096 168.073 822.456 167.7 822.722 167.22C822.989 166.727 823.122 166.14 823.122 165.46ZM838.977 165.22C838.977 165.62 838.95 165.98 838.897 166.3H830.797C830.864 167.1 831.144 167.727 831.637 168.18C832.13 168.633 832.737 168.86 833.457 168.86C834.497 168.86 835.237 168.413 835.677 167.52H838.697C838.377 168.587 837.764 169.467 836.857 170.16C835.95 170.84 834.837 171.18 833.517 171.18C832.45 171.18 831.49 170.947 830.637 170.48C829.797 170 829.137 169.327 828.657 168.46C828.19 167.593 827.957 166.593 827.957 165.46C827.957 164.313 828.19 163.307 828.657 162.44C829.124 161.573 829.777 160.907 830.617 160.44C831.457 159.973 832.424 159.74 833.517 159.74C834.57 159.74 835.51 159.967 836.337 160.42C837.177 160.873 837.824 161.52 838.277 162.36C838.744 163.187 838.977 164.14 838.977 165.22ZM836.077 164.42C836.064 163.7 835.804 163.127 835.297 162.7C834.79 162.26 834.17 162.04 833.437 162.04C832.744 162.04 832.157 162.253 831.677 162.68C831.21 163.093 830.924 163.673 830.817 164.42H836.077ZM843.821 161.64C844.181 161.053 844.647 160.593 845.221 160.26C845.807 159.927 846.474 159.76 847.221 159.76V162.7H846.481C845.601 162.7 844.934 162.907 844.481 163.32C844.041 163.733 843.821 164.453 843.821 165.48V171H841.021V159.92H843.821V161.64ZM848.387 165.42C848.387 164.3 848.607 163.307 849.047 162.44C849.5 161.573 850.107 160.907 850.867 160.44C851.64 159.973 852.5 159.74 853.447 159.74C854.273 159.74 854.993 159.907 855.607 160.24C856.233 160.573 856.733 160.993 857.107 161.5V159.92H859.927V171H857.107V169.38C856.747 169.9 856.247 170.333 855.607 170.68C854.98 171.013 854.253 171.18 853.427 171.18C852.493 171.18 851.64 170.94 850.867 170.46C850.107 169.98 849.5 169.307 849.047 168.44C848.607 167.56 848.387 166.553 848.387 165.42ZM857.107 165.46C857.107 164.78 856.973 164.2 856.707 163.72C856.44 163.227 856.08 162.853 855.627 162.6C855.173 162.333 854.687 162.2 854.167 162.2C853.647 162.2 853.167 162.327 852.727 162.58C852.287 162.833 851.927 163.207 851.647 163.7C851.38 164.18 851.247 164.753 851.247 165.42C851.247 166.087 851.38 166.673 851.647 167.18C851.927 167.673 852.287 168.053 852.727 168.32C853.18 168.587 853.66 168.72 854.167 168.72C854.687 168.72 855.173 168.593 855.627 168.34C856.08 168.073 856.44 167.7 856.707 167.22C856.973 166.727 857.107 166.14 857.107 165.46ZM865.921 162.22V167.58C865.921 167.953 866.008 168.227 866.181 168.4C866.368 168.56 866.675 168.64 867.101 168.64H868.401V171H866.641C864.281 171 863.101 169.853 863.101 167.56V162.22H861.781V159.92H863.101V157.18H865.921V159.92H868.401V162.22H865.921ZM871.835 158.6C871.342 158.6 870.928 158.447 870.595 158.14C870.275 157.82 870.115 157.427 870.115 156.96C870.115 156.493 870.275 156.107 870.595 155.8C870.928 155.48 871.342 155.32 871.835 155.32C872.328 155.32 872.735 155.48 873.055 155.8C873.388 156.107 873.555 156.493 873.555 156.96C873.555 157.427 873.388 157.82 873.055 158.14C872.735 158.447 872.328 158.6 871.835 158.6ZM873.215 159.92V171H870.415V159.92H873.215ZM880.902 171.18C879.835 171.18 878.875 170.947 878.022 170.48C877.168 170 876.495 169.327 876.002 168.46C875.522 167.593 875.282 166.593 875.282 165.46C875.282 164.327 875.528 163.327 876.022 162.46C876.528 161.593 877.215 160.927 878.082 160.46C878.948 159.98 879.915 159.74 880.982 159.74C882.048 159.74 883.015 159.98 883.882 160.46C884.748 160.927 885.428 161.593 885.922 162.46C886.428 163.327 886.682 164.327 886.682 165.46C886.682 166.593 886.422 167.593 885.902 168.46C885.395 169.327 884.702 170 883.822 170.48C882.955 170.947 881.982 171.18 880.902 171.18ZM880.902 168.74C881.408 168.74 881.882 168.62 882.322 168.38C882.775 168.127 883.135 167.753 883.402 167.26C883.668 166.767 883.802 166.167 883.802 165.46C883.802 164.407 883.522 163.6 882.962 163.04C882.415 162.467 881.742 162.18 880.942 162.18C880.142 162.18 879.468 162.467 878.922 163.04C878.388 163.6 878.122 164.407 878.122 165.46C878.122 166.513 878.382 167.327 878.902 167.9C879.435 168.46 880.102 168.74 880.902 168.74ZM894.875 159.76C896.195 159.76 897.262 160.18 898.075 161.02C898.889 161.847 899.295 163.007 899.295 164.5V171H896.495V164.88C896.495 164 896.275 163.327 895.835 162.86C895.395 162.38 894.795 162.14 894.035 162.14C893.262 162.14 892.649 162.38 892.195 162.86C891.755 163.327 891.535 164 891.535 164.88V171H888.735V159.92H891.535V161.3C891.909 160.82 892.382 160.447 892.955 160.18C893.542 159.9 894.182 159.76 894.875 159.76Z" fill="white"/>
<g filter="url(#filter2_d_25_1682)">
<rect x="818" y="34" width="72" height="72" rx="10" fill="#01FFB9"/>
</g>
<g clip-path="url(#clip1_25_1682)">
<path fill-rule="evenodd" clip-rule="evenodd" d="M837.421 61.6618C836.301 61.6618 835.521 61.6611 834.91 61.6192C834.31 61.578 833.96 61.501 833.693 61.3897C832.823 61.027 832.131 60.3314 831.77 59.4558C831.66 59.1873 831.583 58.8357 831.542 58.2318C831.501 57.6173 831.5 56.8322 831.5 55.7059C831.5 54.5796 831.501 53.7944 831.542 53.1799C831.583 52.5761 831.66 52.2245 831.77 51.956C832.131 51.0804 832.823 50.3847 833.693 50.022C833.96 49.9108 834.31 49.8338 834.91 49.7926C835.521 49.7507 836.301 49.75 837.421 49.75H870.579C871.699 49.75 872.479 49.7507 873.09 49.7926C873.69 49.8338 874.04 49.9108 874.307 50.022C875.177 50.3847 875.869 51.0804 876.23 51.956C876.34 52.2245 876.417 52.5761 876.458 53.1799C876.499 53.7944 876.5 54.5796 876.5 55.7059C876.5 56.8322 876.499 57.6173 876.458 58.2318C876.417 58.8357 876.34 59.1873 876.23 59.4558C875.869 60.3314 875.177 61.027 874.307 61.3897C874.04 61.501 873.69 61.578 873.09 61.6192C872.479 61.6611 871.699 61.6618 870.579 61.6618H837.421ZM837.421 58.0882C838.729 58.0882 839.789 57.0216 839.789 55.7059C839.789 54.3902 838.729 53.3235 837.421 53.3235C836.113 53.3235 835.053 54.3902 835.053 55.7059C835.053 57.0216 836.113 58.0882 837.421 58.0882Z" fill="black"/>
<path fill-rule="evenodd" clip-rule="evenodd" d="M837.421 64.0441C836.301 64.0441 835.521 64.0448 834.91 64.0867C834.31 64.1279 833.96 64.2049 833.693 64.3161C832.823 64.6788 832.131 65.3745 831.77 66.2501C831.66 66.5186 831.583 66.8702 831.542 67.4741C831.501 68.0886 831.5 68.8736 831.5 70C831.5 71.1263 831.501 71.9114 831.542 72.5258C831.583 73.1297 831.66 73.4814 831.77 73.7498C832.131 74.6255 832.823 75.3212 833.693 75.6839C833.96 75.7951 834.31 75.872 834.91 75.9132C835.521 75.9553 836.301 75.956 837.421 75.956H853.01C855.51 70.528 860.997 66.76 867.365 66.76C870.769 66.76 873.921 67.8367 876.5 69.668C876.499 68.7163 876.495 68.0264 876.458 67.4741C876.417 66.8702 876.34 66.5186 876.23 66.2501C875.869 65.3745 875.177 64.6788 874.307 64.3161C874.04 64.2049 873.69 64.1279 873.09 64.0867C872.479 64.0448 871.699 64.0441 870.579 64.0441H837.421ZM839.789 70C839.789 71.3158 838.729 72.3823 837.421 72.3823C836.113 72.3823 835.053 71.3158 835.053 70C835.053 68.6842 836.113 67.6177 837.421 67.6177C838.729 67.6177 839.789 68.6842 839.789 70Z" fill="black"/>
<path fill-rule="evenodd" clip-rule="evenodd" d="M852.139 78.3382C851.768 79.6806 851.57 81.0946 851.57 82.555C851.57 85.3487 852.295 87.9731 853.568 90.2499H837.421C836.301 90.2499 835.521 90.2493 834.91 90.2074C834.31 90.1662 833.96 90.0891 833.693 89.9779C832.823 89.6152 832.131 88.9195 831.77 88.044C831.66 87.7754 831.583 87.4239 831.542 86.82C831.501 86.2056 831.5 85.4203 831.5 84.294C831.5 83.1676 831.501 82.3826 831.542 81.7681C831.583 81.1642 831.66 80.8126 831.77 80.5441C832.131 79.6686 832.823 78.973 833.693 78.6103C833.96 78.4991 834.31 78.4219 834.91 78.3808C835.521 78.3389 836.301 78.3382 837.421 78.3382H852.139ZM837.421 86.6765C838.729 86.6765 839.789 85.6098 839.789 84.294C839.789 82.9784 838.729 81.9117 837.421 81.9117C836.113 81.9117 835.053 82.9784 835.053 84.294C835.053 85.6098 836.113 86.6765 837.421 86.6765Z" fill="black"/>
<path fill-rule="evenodd" clip-rule="evenodd" d="M861.122 74.0538C863.18 72.4993 865.736 71.7541 868.307 71.9598C870.877 72.1655 873.283 73.3077 875.067 75.1697C876.852 77.0316 877.89 79.4838 877.986 82.0608C878.082 84.6378 877.229 87.1604 875.588 89.1499L861.122 74.0538ZM859.005 76.1891C857.525 78.1856 856.799 80.6412 856.956 83.1213C857.113 85.6013 858.142 87.9459 859.862 89.7401C861.581 91.5342 863.88 92.6622 866.351 92.9244C868.822 93.1865 871.306 92.5659 873.364 91.1725L859.005 76.1921V76.1891ZM867.466 68.92C863.877 68.92 860.435 70.3459 857.896 72.8839C855.358 75.422 853.933 78.8644 853.933 82.4537C853.933 86.0431 855.358 89.4855 857.896 92.0236C860.435 94.5616 863.877 95.9875 867.466 95.9875C871.056 95.9875 874.498 94.5616 877.036 92.0236C879.574 89.4855 881 86.0431 881 82.4537C881 78.8644 879.574 75.422 877.036 72.8839C874.498 70.3459 871.056 68.92 867.466 68.92Z" fill="black"/>
</g>
<rect x="783" y="214" width="58" height="5" rx="2.5" fill="#8A9BA8"/>
<rect x="783" y="279" width="78" height="5" rx="2.5" fill="#8A9BA8"/>
<rect x="981.5" y="270.5" width="444.109" height="25" rx="4.5" fill="#2E4558"/>
<rect x="991" y="280" width="182" height="6" rx="3" fill="#8A9BA8"/>
<path d="M1414.11 280L1407.61 286L1401.11 280" stroke="#8A9BA8" stroke-width="2"/>
<rect x="981.5" y="270.5" width="444.109" height="25" rx="4.5" stroke="#2E4558"/>
<path d="M1141.74 208.5H1421.11C1423.59 208.5 1425.61 210.515 1425.61 213V229C1425.61 231.485 1423.59 233.5 1421.11 233.5H1141.74V208.5Z" fill="#2E4558" stroke="#2E4558"/>
<path d="M986 208.5H1142.11V233.5H986C983.515 233.5 981.5 231.485 981.5 229V213C981.5 210.515 983.515 208.5 986 208.5Z" fill="#2E4558" stroke="#2E4558"/>
<rect x="1154.93" y="219" width="169.826" height="5" rx="2.5" fill="#8A9BA8"/>
<rect x="1002.91" y="219" width="64.3696" height="5" rx="2.5" fill="#01FFB9"/>
<rect x="783" y="481" width="93" height="25" rx="5" fill="#01FFB9"/>
<path d="M796.16 497.07C795.647 497.07 795.187 496.987 794.78 496.82C794.373 496.653 794.047 496.407 793.8 496.08C793.56 495.753 793.433 495.36 793.42 494.9H795.24C795.267 495.16 795.357 495.36 795.51 495.5C795.663 495.633 795.863 495.7 796.11 495.7C796.363 495.7 796.563 495.643 796.71 495.53C796.857 495.41 796.93 495.247 796.93 495.04C796.93 494.867 796.87 494.723 796.75 494.61C796.637 494.497 796.493 494.403 796.32 494.33C796.153 494.257 795.913 494.173 795.6 494.08C795.147 493.94 794.777 493.8 794.49 493.66C794.203 493.52 793.957 493.313 793.75 493.04C793.543 492.767 793.44 492.41 793.44 491.97C793.44 491.317 793.677 490.807 794.15 490.44C794.623 490.067 795.24 489.88 796 489.88C796.773 489.88 797.397 490.067 797.87 490.44C798.343 490.807 798.597 491.32 798.63 491.98H796.78C796.767 491.753 796.683 491.577 796.53 491.45C796.377 491.317 796.18 491.25 795.94 491.25C795.733 491.25 795.567 491.307 795.44 491.42C795.313 491.527 795.25 491.683 795.25 491.89C795.25 492.117 795.357 492.293 795.57 492.42C795.783 492.547 796.117 492.683 796.57 492.83C797.023 492.983 797.39 493.13 797.67 493.27C797.957 493.41 798.203 493.613 798.41 493.88C798.617 494.147 798.72 494.49 798.72 494.91C798.72 495.31 798.617 495.673 798.41 496C798.21 496.327 797.917 496.587 797.53 496.78C797.143 496.973 796.687 497.07 796.16 497.07ZM799.432 494.2C799.432 493.627 799.539 493.123 799.752 492.69C799.972 492.257 800.269 491.923 800.642 491.69C801.016 491.457 801.432 491.34 801.892 491.34C802.286 491.34 802.629 491.42 802.922 491.58C803.222 491.74 803.452 491.95 803.612 492.21V491.42H805.322V497H803.612V496.21C803.446 496.47 803.212 496.68 802.912 496.84C802.619 497 802.276 497.08 801.882 497.08C801.429 497.08 801.016 496.963 800.642 496.73C800.269 496.49 799.972 496.153 799.752 495.72C799.539 495.28 799.432 494.773 799.432 494.2ZM803.612 494.21C803.612 493.783 803.492 493.447 803.252 493.2C803.019 492.953 802.732 492.83 802.392 492.83C802.052 492.83 801.762 492.953 801.522 493.2C801.289 493.44 801.172 493.773 801.172 494.2C801.172 494.627 801.289 494.967 801.522 495.22C801.762 495.467 802.052 495.59 802.392 495.59C802.732 495.59 803.019 495.467 803.252 495.22C803.492 494.973 803.612 494.637 803.612 494.21ZM809.069 495.4L810.279 491.42H812.099L810.119 497H808.009L806.029 491.42H807.859L809.069 495.4ZM818.079 494.12C818.079 494.28 818.069 494.447 818.049 494.62H814.179C814.206 494.967 814.316 495.233 814.509 495.42C814.709 495.6 814.953 495.69 815.239 495.69C815.666 495.69 815.963 495.51 816.129 495.15H817.949C817.856 495.517 817.686 495.847 817.439 496.14C817.199 496.433 816.896 496.663 816.529 496.83C816.163 496.997 815.753 497.08 815.299 497.08C814.753 497.08 814.266 496.963 813.839 496.73C813.413 496.497 813.079 496.163 812.839 495.73C812.599 495.297 812.479 494.79 812.479 494.21C812.479 493.63 812.596 493.123 812.829 492.69C813.069 492.257 813.403 491.923 813.829 491.69C814.256 491.457 814.746 491.34 815.299 491.34C815.839 491.34 816.319 491.453 816.739 491.68C817.159 491.907 817.486 492.23 817.719 492.65C817.959 493.07 818.079 493.56 818.079 494.12ZM816.329 493.67C816.329 493.377 816.229 493.143 816.029 492.97C815.829 492.797 815.579 492.71 815.279 492.71C814.993 492.71 814.749 492.793 814.549 492.96C814.356 493.127 814.236 493.363 814.189 493.67H816.329ZM820.76 494.21C820.76 493.63 820.877 493.123 821.11 492.69C821.35 492.257 821.68 491.923 822.1 491.69C822.527 491.457 823.014 491.34 823.56 491.34C824.26 491.34 824.844 491.523 825.31 491.89C825.784 492.257 826.094 492.773 826.24 493.44H824.42C824.267 493.013 823.97 492.8 823.53 492.8C823.217 492.8 822.967 492.923 822.78 493.17C822.594 493.41 822.5 493.757 822.5 494.21C822.5 494.663 822.594 495.013 822.78 495.26C822.967 495.5 823.217 495.62 823.53 495.62C823.97 495.62 824.267 495.407 824.42 494.98H826.24C826.094 495.633 825.784 496.147 825.31 496.52C824.837 496.893 824.254 497.08 823.56 497.08C823.014 497.08 822.527 496.963 822.1 496.73C821.68 496.497 821.35 496.163 821.11 495.73C820.877 495.297 820.76 494.79 820.76 494.21ZM830.585 491.36C831.225 491.36 831.738 491.573 832.125 492C832.512 492.42 832.705 493 832.705 493.74V497H831.005V493.97C831.005 493.597 830.908 493.307 830.715 493.1C830.522 492.893 830.262 492.79 829.935 492.79C829.608 492.79 829.348 492.893 829.155 493.1C828.962 493.307 828.865 493.597 828.865 493.97V497H827.155V489.6H828.865V492.17C829.038 491.923 829.275 491.727 829.575 491.58C829.875 491.433 830.212 491.36 830.585 491.36ZM833.553 494.2C833.553 493.627 833.66 493.123 833.873 492.69C834.093 492.257 834.39 491.923 834.763 491.69C835.137 491.457 835.553 491.34 836.013 491.34C836.407 491.34 836.75 491.42 837.043 491.58C837.343 491.74 837.573 491.95 837.733 492.21V491.42H839.443V497H837.733V496.21C837.567 496.47 837.333 496.68 837.033 496.84C836.74 497 836.397 497.08 836.003 497.08C835.55 497.08 835.137 496.963 834.763 496.73C834.39 496.49 834.093 496.153 833.873 495.72C833.66 495.28 833.553 494.773 833.553 494.2ZM837.733 494.21C837.733 493.783 837.613 493.447 837.373 493.2C837.14 492.953 836.853 492.83 836.513 492.83C836.173 492.83 835.883 492.953 835.643 493.2C835.41 493.44 835.293 493.773 835.293 494.2C835.293 494.627 835.41 494.967 835.643 495.22C835.883 495.467 836.173 495.59 836.513 495.59C836.853 495.59 837.14 495.467 837.373 495.22C837.613 494.973 837.733 494.637 837.733 494.21ZM844.081 491.36C844.734 491.36 845.254 491.573 845.641 492C846.034 492.42 846.231 493 846.231 493.74V497H844.531V493.97C844.531 493.597 844.434 493.307 844.241 493.1C844.047 492.893 843.787 492.79 843.461 492.79C843.134 492.79 842.874 492.893 842.681 493.1C842.487 493.307 842.391 493.597 842.391 493.97V497H840.681V491.42H842.391V492.16C842.564 491.913 842.797 491.72 843.091 491.58C843.384 491.433 843.714 491.36 844.081 491.36ZM849.539 491.34C849.932 491.34 850.275 491.42 850.569 491.58C850.869 491.74 851.099 491.95 851.259 492.21V491.42H852.969V496.99C852.969 497.503 852.865 497.967 852.659 498.38C852.459 498.8 852.149 499.133 851.729 499.38C851.315 499.627 850.799 499.75 850.179 499.75C849.352 499.75 848.682 499.553 848.169 499.16C847.655 498.773 847.362 498.247 847.289 497.58H848.979C849.032 497.793 849.159 497.96 849.359 498.08C849.559 498.207 849.805 498.27 850.099 498.27C850.452 498.27 850.732 498.167 850.939 497.96C851.152 497.76 851.259 497.437 851.259 496.99V496.2C851.092 496.46 850.862 496.673 850.569 496.84C850.275 497 849.932 497.08 849.539 497.08C849.079 497.08 848.662 496.963 848.289 496.73C847.915 496.49 847.619 496.153 847.399 495.72C847.185 495.28 847.079 494.773 847.079 494.2C847.079 493.627 847.185 493.123 847.399 492.69C847.619 492.257 847.915 491.923 848.289 491.69C848.662 491.457 849.079 491.34 849.539 491.34ZM851.259 494.21C851.259 493.783 851.139 493.447 850.899 493.2C850.665 492.953 850.379 492.83 850.039 492.83C849.699 492.83 849.409 492.953 849.169 493.2C848.935 493.44 848.819 493.773 848.819 494.2C848.819 494.627 848.935 494.967 849.169 495.22C849.409 495.467 849.699 495.59 850.039 495.59C850.379 495.59 850.665 495.467 850.899 495.22C851.139 494.973 851.259 494.637 851.259 494.21ZM859.466 494.12C859.466 494.28 859.456 494.447 859.436 494.62H855.566C855.593 494.967 855.703 495.233 855.896 495.42C856.096 495.6 856.339 495.69 856.626 495.69C857.053 495.69 857.349 495.51 857.516 495.15H859.336C859.243 495.517 859.073 495.847 858.826 496.14C858.586 496.433 858.283 496.663 857.916 496.83C857.549 496.997 857.139 497.08 856.686 497.08C856.139 497.08 855.653 496.963 855.226 496.73C854.799 496.497 854.466 496.163 854.226 495.73C853.986 495.297 853.866 494.79 853.866 494.21C853.866 493.63 853.983 493.123 854.216 492.69C854.456 492.257 854.789 491.923 855.216 491.69C855.643 491.457 856.133 491.34 856.686 491.34C857.226 491.34 857.706 491.453 858.126 491.68C858.546 491.907 858.873 492.23 859.106 492.65C859.346 493.07 859.466 493.56 859.466 494.12ZM857.716 493.67C857.716 493.377 857.616 493.143 857.416 492.97C857.216 492.797 856.966 492.71 856.666 492.71C856.379 492.71 856.136 492.793 855.936 492.96C855.743 493.127 855.623 493.363 855.576 493.67H857.716ZM862.638 497.08C862.151 497.08 861.718 496.997 861.338 496.83C860.958 496.663 860.658 496.437 860.438 496.15C860.218 495.857 860.095 495.53 860.068 495.17H861.758C861.778 495.363 861.868 495.52 862.028 495.64C862.188 495.76 862.385 495.82 862.618 495.82C862.831 495.82 862.995 495.78 863.108 495.7C863.228 495.613 863.288 495.503 863.288 495.37C863.288 495.21 863.205 495.093 863.038 495.02C862.871 494.94 862.601 494.853 862.228 494.76C861.828 494.667 861.495 494.57 861.228 494.47C860.961 494.363 860.731 494.2 860.538 493.98C860.345 493.753 860.248 493.45 860.248 493.07C860.248 492.75 860.335 492.46 860.508 492.2C860.688 491.933 860.948 491.723 861.288 491.57C861.635 491.417 862.045 491.34 862.518 491.34C863.218 491.34 863.768 491.513 864.168 491.86C864.575 492.207 864.808 492.667 864.868 493.24H863.288C863.261 493.047 863.175 492.893 863.028 492.78C862.888 492.667 862.701 492.61 862.468 492.61C862.268 492.61 862.115 492.65 862.008 492.73C861.901 492.803 861.848 492.907 861.848 493.04C861.848 493.2 861.931 493.32 862.098 493.4C862.271 493.48 862.538 493.56 862.898 493.64C863.311 493.747 863.648 493.853 863.908 493.96C864.168 494.06 864.395 494.227 864.588 494.46C864.788 494.687 864.891 494.993 864.898 495.38C864.898 495.707 864.805 496 864.618 496.26C864.438 496.513 864.175 496.713 863.828 496.86C863.488 497.007 863.091 497.08 862.638 497.08Z" fill="#171D22"/>
<path d="M789.412 355.904C790.009 356.025 790.485 356.31 790.84 356.758C791.204 357.197 791.386 357.715 791.386 358.312C791.386 359.143 791.106 359.801 790.546 360.286C789.995 360.762 789.193 361 788.138 361H783.896V351.116H788.054C789.053 351.116 789.818 351.335 790.35 351.774C790.891 352.213 791.162 352.829 791.162 353.622C791.162 354.238 790.999 354.742 790.672 355.134C790.355 355.526 789.935 355.783 789.412 355.904ZM785.87 355.26H787.648C788.143 355.26 788.516 355.153 788.768 354.938C789.029 354.714 789.16 354.397 789.16 353.986C789.16 353.575 789.034 353.258 788.782 353.034C788.53 352.81 788.143 352.698 787.62 352.698H785.87V355.26ZM787.746 359.39C788.269 359.39 788.67 359.278 788.95 359.054C789.23 358.821 789.37 358.485 789.37 358.046C789.37 357.607 789.225 357.271 788.936 357.038C788.656 356.795 788.255 356.674 787.732 356.674H785.87V359.39H787.746ZM795.807 353.146C796.46 353.146 797.02 353.3 797.487 353.608C797.954 353.916 798.285 354.331 798.481 354.854V353.244H800.441V361H798.481V359.376C798.285 359.899 797.954 360.319 797.487 360.636C797.02 360.944 796.46 361.098 795.807 361.098C795.154 361.098 794.566 360.939 794.043 360.622C793.52 360.305 793.11 359.847 792.811 359.25C792.522 358.643 792.377 357.934 792.377 357.122C792.377 356.31 792.522 355.605 792.811 355.008C793.11 354.401 793.52 353.939 794.043 353.622C794.566 353.305 795.154 353.146 795.807 353.146ZM796.423 354.868C795.807 354.868 795.312 355.069 794.939 355.47C794.566 355.871 794.379 356.422 794.379 357.122C794.379 357.822 794.566 358.373 794.939 358.774C795.312 359.166 795.807 359.362 796.423 359.362C797.02 359.362 797.51 359.161 797.893 358.76C798.285 358.349 798.481 357.803 798.481 357.122C798.481 356.431 798.285 355.885 797.893 355.484C797.51 355.073 797.02 354.868 796.423 354.868ZM806.85 353.132C807.746 353.132 808.46 353.426 808.992 354.014C809.524 354.602 809.79 355.428 809.79 356.492V361H807.83V356.716C807.83 356.1 807.671 355.624 807.354 355.288C807.037 354.943 806.603 354.77 806.052 354.77C805.492 354.77 805.044 354.952 804.708 355.316C804.372 355.68 804.204 356.203 804.204 356.884V361H802.23V353.244H804.204V354.798C804.409 354.275 804.745 353.869 805.212 353.58C805.688 353.281 806.234 353.132 806.85 353.132ZM816.147 353.132C817.043 353.132 817.757 353.426 818.289 354.014C818.821 354.602 819.087 355.428 819.087 356.492V361H817.127V356.716C817.127 356.1 816.968 355.624 816.651 355.288C816.334 354.943 815.9 354.77 815.349 354.77C814.789 354.77 814.341 354.952 814.005 355.316C813.669 355.68 813.501 356.203 813.501 356.884V361H811.527V353.244H813.501V354.798C813.706 354.275 814.042 353.869 814.509 353.58C814.985 353.281 815.531 353.132 816.147 353.132ZM828.118 356.828C828.118 357.024 828.094 357.248 828.048 357.5H822.364C822.392 358.191 822.578 358.699 822.924 359.026C823.269 359.353 823.698 359.516 824.212 359.516C824.669 359.516 825.047 359.404 825.346 359.18C825.654 358.956 825.85 358.653 825.934 358.27H828.02C827.917 358.811 827.698 359.297 827.362 359.726C827.026 360.155 826.592 360.491 826.06 360.734C825.537 360.977 824.954 361.098 824.31 361.098C823.554 361.098 822.882 360.939 822.294 360.622C821.706 360.295 821.248 359.833 820.922 359.236C820.595 358.639 820.432 357.934 820.432 357.122C820.432 356.31 820.595 355.605 820.922 355.008C821.248 354.401 821.706 353.939 822.294 353.622C822.882 353.305 823.554 353.146 824.31 353.146C825.075 353.146 825.742 353.305 826.312 353.622C826.89 353.939 827.334 354.378 827.642 354.938C827.959 355.489 828.118 356.119 828.118 356.828ZM826.13 356.632C826.158 355.997 825.99 355.517 825.626 355.19C825.271 354.863 824.832 354.7 824.31 354.7C823.778 354.7 823.33 354.863 822.966 355.19C822.602 355.517 822.401 355.997 822.364 356.632H826.13ZM832.557 353.146C833.21 353.146 833.766 353.3 834.223 353.608C834.69 353.916 835.026 354.331 835.231 354.854V350.64H837.191V361H835.231V359.376C835.026 359.899 834.69 360.319 834.223 360.636C833.766 360.944 833.21 361.098 832.557 361.098C831.904 361.098 831.316 360.939 830.793 360.622C830.27 360.305 829.86 359.847 829.561 359.25C829.272 358.643 829.127 357.934 829.127 357.122C829.127 356.31 829.272 355.605 829.561 355.008C829.86 354.401 830.27 353.939 830.793 353.622C831.316 353.305 831.904 353.146 832.557 353.146ZM833.173 354.868C832.557 354.868 832.062 355.069 831.689 355.47C831.316 355.871 831.129 356.422 831.129 357.122C831.129 357.822 831.316 358.373 831.689 358.774C832.062 359.166 832.557 359.362 833.173 359.362C833.77 359.362 834.26 359.161 834.643 358.76C835.035 358.349 835.231 357.803 835.231 357.122C835.231 356.431 835.035 355.885 834.643 355.484C834.26 355.073 833.77 354.868 833.173 354.868ZM844.003 351.116V361H842.029V351.116H844.003ZM847.763 357.332V361H845.789V351.116H849.387C850.553 351.116 851.431 351.396 852.019 351.956C852.616 352.516 852.915 353.277 852.915 354.238C852.915 355.181 852.607 355.932 851.991 356.492C851.384 357.052 850.516 357.332 849.387 357.332H847.763ZM849.177 355.75C850.334 355.75 850.913 355.246 850.913 354.238C850.913 353.743 850.777 353.365 850.507 353.104C850.236 352.843 849.793 352.712 849.177 352.712H847.763V355.75H849.177ZM856.871 353.146C857.813 353.146 858.569 353.384 859.139 353.86C859.708 354.336 860.063 354.971 860.203 355.764H858.355C858.28 355.391 858.112 355.092 857.851 354.868C857.589 354.644 857.249 354.532 856.829 354.532C856.493 354.532 856.231 354.611 856.045 354.77C855.858 354.929 855.765 355.143 855.765 355.414C855.765 355.629 855.839 355.801 855.989 355.932C856.138 356.063 856.325 356.165 856.549 356.24C856.773 356.315 857.095 356.403 857.515 356.506C858.103 356.637 858.579 356.777 858.943 356.926C859.316 357.066 859.633 357.295 859.895 357.612C860.165 357.92 860.301 358.34 860.301 358.872C860.301 359.535 860.039 360.071 859.517 360.482C859.003 360.893 858.308 361.098 857.431 361.098C856.423 361.098 855.615 360.874 855.009 360.426C854.402 359.969 854.033 359.32 853.903 358.48H855.793C855.839 358.863 856.007 359.166 856.297 359.39C856.586 359.605 856.964 359.712 857.431 359.712C857.767 359.712 858.023 359.633 858.201 359.474C858.378 359.306 858.467 359.091 858.467 358.83C858.467 358.606 858.387 358.424 858.229 358.284C858.079 358.144 857.888 358.037 857.655 357.962C857.431 357.887 857.109 357.799 856.689 357.696C856.11 357.565 855.639 357.435 855.275 357.304C854.92 357.164 854.612 356.945 854.351 356.646C854.099 356.347 853.973 355.937 853.973 355.414C853.973 354.742 854.229 354.196 854.743 353.776C855.256 353.356 855.965 353.146 856.871 353.146Z" fill="white"/>
</g>
<defs>
<filter id="filter0_d_25_1682" x="609" y="43" width="904" height="120" filterUnits="userSpaceOnUse" color-interpolation-filters="sRGB">
<feFlood flood-opacity="0" result="BackgroundImageFix"/>
<feColorMatrix in="SourceAlpha" type="matrix" values="0 0 0 0 0 0 0 0 0 0 0 0 0 0 0 0 0 0 127 0" result="hardAlpha"/>
<feOffset dy="4"/>
<feGaussianBlur stdDeviation="20"/>
<feComposite in2="hardAlpha" operator="out"/>
<feColorMatrix type="matrix" values="0 0 0 0 0 0 0 0 0 0 0 0 0 0 0 0 0 0 0.25 0"/>
<feBlend mode="normal" in2="BackgroundImageFix" result="effect1_dropShadow_25_1682"/>
<feBlend mode="normal" in="SourceGraphic" in2="effect1_dropShadow_25_1682" result="shape"/>
</filter>
<filter id="filter1_d_25_1682" x="1433" y="351" width="80" height="80" filterUnits="userSpaceOnUse" color-interpolation-filters="sRGB">
<feFlood flood-opacity="0" result="BackgroundImageFix"/>
<feColorMatrix in="SourceAlpha" type="matrix" values="0 0 0 0 0 0 0 0 0 0 0 0 0 0 0 0 0 0 127 0" result="hardAlpha"/>
<feOffset dy="4"/>
<feGaussianBlur stdDeviation="2"/>
<feColorMatrix type="matrix" values="0 0 0 0 0 0 0 0 0 0 0 0 0 0 0 0 0 0 0.25 0"/>
<feBlend mode="normal" in2="BackgroundImageFix" result="effect1_dropShadow_25_1682"/>
<feBlend mode="normal" in="SourceGraphic" in2="effect1_dropShadow_25_1682" result="shape"/>
</filter>
<filter id="filter2_d_25_1682" x="814" y="34" width="80" height="80" filterUnits="userSpaceOnUse" color-interpolation-filters="sRGB">
<feFlood flood-opacity="0" result="BackgroundImageFix"/>
<feColorMatrix in="SourceAlpha" type="matrix" values="0 0 0 0 0 0 0 0 0 0 0 0 0 0 0 0 0 0 127 0" result="hardAlpha"/>
<feOffset dy="4"/>
<feGaussianBlur stdDeviation="2"/>
<feColorMatrix type="matrix" values="0 0 0 0 0 0 0 0 0 0 0 0 0 0 0 0 0 0 0.25 0"/>
<feBlend mode="normal" in2="BackgroundImageFix" result="effect1_dropShadow_25_1682"/>
<feBlend mode="normal" in="SourceGraphic" in2="effect1_dropShadow_25_1682" result="shape"/>
</filter>
<clipPath id="clip0_25_1682">
<rect width="1544" height="500" fill="white"/>
</clipPath>
<clipPath id="clip1_25_1682">
<rect width="54" height="54" fill="white" transform="translate(827 43)"/>
</clipPath>
</defs>
</svg>
